<?xml version="1.0" encoding="utf-8"?>
<!-- Generator: Adobe Illustrator 25.2.3, SVG Export Plug-In . SVG Version: 6.00 Build 0)  -->
<svg version="1.1" id="Capa_1" xmlns="http://www.w3.org/2000/svg" xmlns:xlink="http://www.w3.org/1999/xlink" x="0px" y="0px"
	 viewBox="0 0 129.6 176.8" style="enable-background:new 0 0 129.6 176.8;" xml:space="preserve">
<style type="text/css">
	.st0{fill:#BD1025;}
</style>
<g>
	<path class="st0" d="M-63.3-282.8l39.1-101.8c0.4-1.1,0.6-1.9,0.6-2.5c0-1.5-0.8-2.3-2.5-2.3c-1.5,0-4.4,1-8.6,2.9l-4.3,1.8
		l-0.6-1.6c8.6-3.7,16.7-8,24.2-13c7.5-5,12.2-9.4,14.1-13.2L0-412l-49.8,129.4c-1,2.7-1.4,4.8-1.4,6.1c0,3.3,2.2,4.9,6.6,4.9h3.9
		v1.6h-7c-1.2,0-3.3-0.1-6.1-0.3c-2.9-0.2-5.3-0.3-7.4-0.3s-4.5,0.1-7.3,0.3c-2.8,0.2-4.9,0.3-6.2,0.3h-8.2v-1.6h4.7
		c4,0,7-0.8,9.1-2.4C-67-275.4-65-278.4-63.3-282.8z"/>
</g>
<g>
	<path class="st0" d="M92.9-111.4L78-85.8l-1.2-0.6c1.6-3.3,2.5-5.7,2.5-7.2c0-3.4-2.6-5.1-7.8-5.1H4.1v-0.8l23.1-17.8
		c9.3-7.2,17.3-13.6,24-19c6.7-5.5,14.2-12.1,22.4-19.9c8.3-7.8,14.9-14.9,20.1-21.5c5.1-6.6,9.5-13.6,13.1-21.1
		c3.6-7.5,5.4-14.5,5.4-21.1c0-12.4-6.1-18.6-18.4-18.6c-7,0-13.1,2.2-18.4,6.7C70-227.5,64.9-221,60-212.6
		c-1.9,3.4-4.3,5.1-7.2,5.1c-4,0-5.9-2.1-5.9-6.3c0-5.3,5.3-11.1,16-17.2c10.6-6.1,21-9.2,31.1-9.2c7.6,0,14.8,2.5,21.5,7.4
		c6.7,4.9,10,11.5,10,19.7c0,4-1,8.2-2.9,12.6c-1.9,4.4-5,9.1-9.2,14c-4.2,4.9-8.4,9.5-12.6,13.6c-4.2,4.2-9.8,9.1-16.8,14.7
		c-7,5.7-12.9,10.3-17.7,14c-4.8,3.7-11.3,8.6-19.6,14.8c-8.3,6.2-14.4,10.8-18.3,13.8l-5.3,4.1H92.9z"/>
</g>
<g>
	<path class="st0" d="M92,18.3c-7.4,0-13.8,2.2-19.2,6.6c-5.5,4.4-10.6,10.9-15.4,19.4c-1.9,3.4-4.2,5.1-7,5.1
		c-1.8,0-3.2-0.6-4.4-1.7c-1.2-1.2-1.7-2.6-1.7-4.4c0-5.6,5.5-11.4,16.5-17.5c11-6.1,21.4-9.1,31.2-9.1c7.5,0,14.4,2.3,20.7,6.8
		c6.3,4.5,9.4,10.2,9.4,17.2c0,8.1-4,15.5-11.9,22.4c-7.9,6.9-17.4,12.5-28.5,16.7c5.6-0.4,11.1,1.8,16.4,6.6c5.3,4.8,8,11.1,8,18.8
		c0,13.2-6.5,25.7-19.6,37.5c-13,11.7-27.1,17.6-42.3,17.6c-11.7,0-20.8-3.3-27.2-10c-6.4-6.7-9.6-14-9.6-21.9c0-6,2.4-9,7.2-9
		c1.6,0,3.1,0.6,4.3,1.8c1.2,1.2,1.8,2.8,1.8,4.7c0,1.1-0.1,2.8-0.3,5.2c-0.2,2.4-0.3,4.4-0.3,6c0,14.3,8.2,21.5,24.6,21.5
		c8.3,0,16.3-3.6,24-10.7c7.6-7.2,13.6-15.7,17.8-25.6c4.2-9.9,6.3-19.2,6.3-27.9c0-8.5-3.6-12.7-10.6-12.7c-2.7,0-6.6,1.1-11.5,3.3
		l-16.4,7.6l-0.8-1.6l22.1-10.2c9.4-4.4,17.4-10.6,23.9-18.7c6.5-8.1,9.7-16.8,9.7-26.1C109.2,24.1,103.5,18.3,92,18.3z"/>
</g>
<g>
	<path class="st0" d="M704.8-72l10.4-27.2h-58.8v-1l98.9-98.3c1,0,2,0,3.3,0.1c1.2,0.1,2,0.1,2.5,0.1c0.4,0,1.3,0,2.7-0.1
		c1.4-0.1,2.5-0.1,3.3-0.1l-37.5,97.2h1.8c4.4,0,8.8-1.7,13.3-5c4.5-3.3,11.9-10.5,22.1-21.6l1,0.8l-16.4,27.8H729l-10.6,27.4
		c-1,2.2-1.4,4.2-1.4,6.1c0,3.3,2.2,4.9,6.6,4.9h3.9v1.6h-7c-1.2,0-3.3-0.1-6.1-0.3c-2.9-0.2-5.3-0.3-7.4-0.3c-2,0-4.5,0.1-7.3,0.3
		c-2.8,0.2-4.9,0.3-6.2,0.3h-7.8v-1.6h4.3c4,0,7-0.8,9.1-2.4C701.1-64.6,703-67.6,704.8-72z M716.1-101.1l34.2-89.7L660-101.1H716.1
		z"/>
</g>
<g>
	<path class="st0" d="M797-84.5c0-2.3,0.7-4.2,2-5.5c1.4-1.4,3-2,4.9-2c1.8,0,3.2,0.6,4.4,1.8c1.2,1.2,1.7,2.7,1.7,4.5
		c0,0.7,0,1.9-0.1,3.7c-0.1,1.8-0.1,3.1-0.1,4.1c0,4.9,1.7,9.3,5.2,13.3c3.5,4,8.8,5.9,15.9,5.9c9,0,17.2-3.8,24.7-11.4
		c7.4-7.6,13-16.3,16.7-26.3c3.7-10,5.5-19.3,5.5-28c0-16.7-6.2-25-18.6-25c-13.5,0-26.2,7-38.1,21.1l-1.4-1
		c23.5-46.1,35.3-69.2,35.4-69.2h50.8c4.5,0,7.9-0.5,10.3-1.6c2.4-1.1,4.7-3.4,7.1-7l1.2,0.6l-12.7,20.7h-61L825.1-135
		c10.9-10.6,22.3-16,34.2-16c8.9,0,16.4,3,22.5,9c6.1,6,9.2,13.7,9.2,23.1c0,16-6,30.3-18.1,42.9C860.8-63.4,846.8-57,830.8-57
		c-9.8,0-17.9-2.9-24.3-8.6S797-77.6,797-84.5z"/>
</g>
<g>
	<path class="st0" d="M1036.7-182.9c-12.6,1-24.2,4.6-34.9,11.1c-10.7,6.4-19.5,13.8-26.2,22c-6.8,8.3-12.8,17.7-18.1,28.4
		c9.6-8.6,19.5-12.9,29.9-12.9c8.7,0,16.2,3,22.5,8.9c6.3,5.9,9.4,14,9.4,24.1c0,15.3-6,29.3-18,42c-12,12.7-25.4,19-40.1,19
		c-8.6,0-15.6-3.6-21-11c-5.4-7.3-8.1-16.5-8.1-27.7c0-25.9,10-49.3,30.1-70.1c20.1-20.8,44.9-32.5,74.5-34.9V-182.9z M986.9-132.7
		c-10.6,0-21,5-31.1,14.9c-4.6,10-8.2,19.7-10.5,29.1c-2.4,9.4-3.6,16.9-3.6,22.5c0,3,0.3,5.8,0.8,8.4c0.5,2.6,1.5,5.2,2.9,7.7
		c1.4,2.5,3.4,4.5,6,6c2.7,1.5,5.9,2.3,9.7,2.3c8.5,0,16.3-3.9,23.4-11.6c7.2-7.7,12.6-16.5,16.2-26.4c3.6-9.9,5.4-19,5.4-27.3
		C1006.2-124.2,999.8-132.7,986.9-132.7z"/>
</g>
<g>
	<path class="st0" d="M573.2,128.2c-1,4.2-3.7,6.3-8.2,6.3c-2,0-3.8-0.7-5.3-2.1c-1.5-1.4-2.3-3.3-2.3-5.6c0-1.8,0.8-4.7,2.5-8.8
		c18-45.9,45.1-83,81.3-111.4h-52.8c-4.6,0-8.6,1.1-12,3.3c-3.3,2.2-6.7,5.8-9.9,10.9l-1.2-0.6l19.7-34.6l1.2,0.6
		c-1.2,2.5-1.8,4.2-1.8,5.3c0,1.6,1.2,2.5,3.7,2.5h70.4v0.8c-14.1,10.6-25.8,20.8-35.1,30.5c-9.4,9.7-17.2,20-23.5,30.9
		c-6.3,10.9-11.4,21.7-15.2,32.3C580.8,99.1,577.1,112.3,573.2,128.2z"/>
</g>
</svg>
