<svg xmlns="http://www.w3.org/2000/svg" width="25.448" height="25.448" viewBox="0 0 25.448 25.448">
  <path id="Trazado_1" data-name="Trazado 1" d="M41.661,19H21.787A2.79,2.79,0,0,0,19,21.787V41.661a2.79,2.79,0,0,0,2.787,2.787h8.977a.41.41,0,0,0,.41-.41V34.815a.41.41,0,0,0-.41-.41H29.052V32.266h1.712a.41.41,0,0,0,.41-.41v-.673a6.844,6.844,0,0,1,1.768-5.034,5.542,5.542,0,0,1,3.8-1.4,8.14,8.14,0,0,1,1.613.15v2.272a5.419,5.419,0,0,0-1.03-.094c-1.938,0-3.05,1.451-3.05,3.981v.8a.41.41,0,0,0,.41.41h2.872l-.7,2.138H34.716a.41.41,0,0,0-.41.41v9.223a.41.41,0,0,0,.41.41h6.945a2.79,2.79,0,0,0,2.787-2.787V21.787A2.79,2.79,0,0,0,41.661,19Z" transform="translate(-19 -19)" fill="#fff"/>
</svg>
