<svg xmlns="http://www.w3.org/2000/svg" width="28" height="28" viewBox="0 0 28 28">
  <g id="Grupo_1" data-name="Grupo 1" transform="translate(-0.009 -0.327)">
    <rect id="Rectángulo_2" data-name="Rectángulo 2" width="28" height="28" transform="translate(0.009 0.327)" fill="none"/>
    <path id="Trazado_2" data-name="Trazado 2" d="M114.824,200.062a6.966,6.966,0,0,0-6.962-6.962h-11.8a6.966,6.966,0,0,0-6.962,6.962v11.8a6.966,6.966,0,0,0,6.962,6.962h11.8a6.966,6.966,0,0,0,6.962-6.962Zm-2.124,0v11.8a4.84,4.84,0,0,1-4.838,4.838h-11.8a4.84,4.84,0,0,1-4.838-4.838v-11.8a4.84,4.84,0,0,1,4.838-4.838h11.8A4.84,4.84,0,0,1,112.7,200.062Zm-4.968,5a5.793,5.793,0,0,0-4.871-4.871,5.668,5.668,0,0,0-.848-.063,5.782,5.782,0,1,0,5.782,5.782A5.666,5.666,0,0,0,107.732,205.063Zm-2.1.311a3.722,3.722,0,0,1,.039.537,3.658,3.658,0,1,1-3.658-3.658,3.724,3.724,0,0,1,.537.039A3.668,3.668,0,0,1,105.632,205.374Zm2.82-6.964a1.062,1.062,0,1,1-1.062,1.062A1.062,1.062,0,0,1,108.452,198.41Z" transform="translate(-87.802 -191.802)" fill="#fff" fill-rule="evenodd"/>
  </g>
</svg>
