<?xml version="1.0" encoding="utf-8"?>
<!-- Generator: Adobe Illustrator 25.2.3, SVG Export Plug-In . SVG Version: 6.00 Build 0)  -->
<svg version="1.1" id="Capa_1" xmlns="http://www.w3.org/2000/svg" xmlns:xlink="http://www.w3.org/1999/xlink" x="0px" y="0px"
	 viewBox="0 0 385 385" style="enable-background:new 0 0 385 385;" xml:space="preserve">
<style type="text/css">
	.st0{fill:#D4F1E2;}
</style>
<path class="st0" d="M12,112.1h360.9c6.6,0,12-5.4,12-12c0-6.6-5.4-12-12-12H12c-6.6,0-12,5.4-12,12C0,106.7,5.4,112.1,12,112.1z"/>
<path class="st0" d="M372.9,168.4H12c-6.6,0-12,5.4-12,12s5.4,12,12,12h360.9c6.6,0,12-5.4,12-12S379.6,168.4,372.9,168.4z"/>
<path class="st0" d="M372.9,248.8H12c-6.6,0-12,5.4-12,12c0,6.6,5.4,12,12,12h360.9c6.6,0,12-5.4,12-12
	C385,254.2,379.6,248.8,372.9,248.8z"/>
</svg>
