<?xml version="1.0" encoding="utf-8"?>
<!-- Generator: Adobe Illustrator 25.2.0, SVG Export Plug-In . SVG Version: 6.00 Build 0)  -->
<svg version="1.1" id="Layer_1" xmlns="http://www.w3.org/2000/svg" xmlns:xlink="http://www.w3.org/1999/xlink" x="0px" y="0px"
	 viewBox="0 0 1000 1000" style="enable-background:new 0 0 1000 1000;" xml:space="preserve">
<style type="text/css">
	.st0{fill:#008082;}
	.st1{fill:#D5ECDF;}
</style>
<g>
	<circle class="st0" cx="500" cy="500" r="381.2"/>
	<g>
		<g>
			<g>
				<path class="st1" d="M270,698.1c-0.1-0.1-0.3-0.3-0.7-0.5c-0.3-0.2-0.7-0.4-1.2-0.6c-0.5-0.2-1-0.4-1.5-0.5
					c-0.5-0.1-1.1-0.2-1.7-0.2c-1,0-1.7,0.2-2.2,0.6c-0.5,0.4-0.8,0.9-0.8,1.5c0,0.5,0.2,0.9,0.5,1.2c0.3,0.3,0.8,0.6,1.4,0.8
					c0.6,0.2,1.4,0.4,2.4,0.7c1.2,0.3,2.3,0.7,3.2,1.1c0.9,0.4,1.6,1,2.1,1.7c0.5,0.7,0.7,1.6,0.7,2.7c0,1-0.2,1.9-0.6,2.6
					c-0.4,0.7-0.9,1.3-1.5,1.7c-0.7,0.4-1.4,0.8-2.2,1c-0.8,0.2-1.7,0.3-2.6,0.3s-1.9-0.1-2.8-0.3c-0.9-0.2-1.8-0.5-2.7-0.8
					c-0.9-0.4-1.7-0.8-2.4-1.3l1.6-3.1c0.2,0.2,0.4,0.4,0.8,0.6c0.4,0.3,0.9,0.5,1.5,0.8c0.6,0.3,1.2,0.5,1.9,0.6
					c0.7,0.2,1.4,0.3,2.1,0.3c1,0,1.7-0.2,2.2-0.5c0.5-0.3,0.8-0.8,0.8-1.4c0-0.6-0.2-1-0.6-1.3c-0.4-0.3-1-0.6-1.7-0.8
					c-0.7-0.2-1.6-0.5-2.6-0.8c-1.2-0.3-2.2-0.7-3-1.1c-0.8-0.4-1.4-0.9-1.8-1.6c-0.4-0.6-0.6-1.4-0.6-2.4c0-1.3,0.3-2.4,0.9-3.2
					c0.6-0.9,1.4-1.5,2.5-2c1-0.4,2.2-0.7,3.5-0.7c0.9,0,1.7,0.1,2.5,0.3c0.8,0.2,1.5,0.4,2.2,0.8c0.7,0.3,1.3,0.7,1.8,1L270,698.1z
					"/>
				<path class="st1" d="M284.5,712.1c-1.5,0-2.8-0.3-3.8-0.8c-1-0.5-1.9-1.2-2.5-2.1c-0.6-0.9-1.1-1.9-1.4-3
					c-0.3-1.1-0.4-2.3-0.4-3.5v-9.6h3.6v9.6c0,0.8,0.1,1.5,0.2,2.3c0.1,0.7,0.4,1.4,0.8,2c0.4,0.6,0.8,1,1.4,1.4
					c0.6,0.3,1.3,0.5,2.2,0.5c0.9,0,1.6-0.2,2.2-0.5c0.6-0.3,1.1-0.8,1.4-1.4c0.3-0.6,0.6-1.2,0.8-2c0.2-0.7,0.2-1.5,0.2-2.2v-9.6
					h3.6v9.6c0,1.3-0.2,2.5-0.5,3.6c-0.3,1.1-0.8,2.1-1.5,3s-1.5,1.5-2.5,2C287.2,711.8,286,712.1,284.5,712.1z"/>
				<path class="st1" d="M309.1,698.1c-0.1-0.1-0.3-0.3-0.7-0.5c-0.3-0.2-0.7-0.4-1.2-0.6c-0.5-0.2-1-0.4-1.5-0.5
					c-0.5-0.1-1.1-0.2-1.7-0.2c-1,0-1.7,0.2-2.2,0.6c-0.5,0.4-0.8,0.9-0.8,1.5c0,0.5,0.2,0.9,0.5,1.2c0.3,0.3,0.8,0.6,1.4,0.8
					c0.6,0.2,1.4,0.4,2.4,0.7c1.2,0.3,2.3,0.7,3.2,1.1c0.9,0.4,1.6,1,2.1,1.7c0.5,0.7,0.7,1.6,0.7,2.7c0,1-0.2,1.9-0.6,2.6
					c-0.4,0.7-0.9,1.3-1.5,1.7c-0.7,0.4-1.4,0.8-2.2,1c-0.8,0.2-1.7,0.3-2.6,0.3s-1.9-0.1-2.8-0.3c-0.9-0.2-1.8-0.5-2.7-0.8
					c-0.9-0.4-1.7-0.8-2.4-1.3l1.6-3.1c0.2,0.2,0.4,0.4,0.8,0.6c0.4,0.3,0.9,0.5,1.5,0.8c0.6,0.3,1.2,0.5,1.9,0.6
					c0.7,0.2,1.4,0.3,2.1,0.3c1,0,1.7-0.2,2.2-0.5c0.5-0.3,0.8-0.8,0.8-1.4c0-0.6-0.2-1-0.6-1.3c-0.4-0.3-1-0.6-1.7-0.8
					c-0.7-0.2-1.6-0.5-2.6-0.8c-1.2-0.3-2.2-0.7-3-1.1c-0.8-0.4-1.4-0.9-1.8-1.6c-0.4-0.6-0.6-1.4-0.6-2.4c0-1.3,0.3-2.4,0.9-3.2
					c0.6-0.9,1.4-1.5,2.5-2c1-0.4,2.2-0.7,3.5-0.7c0.9,0,1.7,0.1,2.5,0.3c0.8,0.2,1.5,0.4,2.2,0.8c0.7,0.3,1.3,0.7,1.8,1
					L309.1,698.1z"/>
				<path class="st1" d="M329.7,696.4h-6v15.6h-3.6v-15.6h-6v-3.2h15.6V696.4z"/>
				<path class="st1" d="M336.6,693.2h3.7l6.9,18.7h-3.7l-1.6-4.7H335l-1.6,4.7h-3.7L336.6,693.2z M341,704.7l-2.6-7.7l-2.6,7.7H341
					z"/>
				<path class="st1" d="M350.7,711.9v-18.7h3.6v18.7H350.7z"/>
				<path class="st1" d="M363.7,699.9v12H360v-18.7h2.9l9.7,12.4v-12.3h3.6v18.7h-3L363.7,699.9z"/>
				<path class="st1" d="M386.8,693.2h3.7l6.9,18.7h-3.7l-1.6-4.7h-6.9l-1.6,4.7h-3.7L386.8,693.2z M391.2,704.7l-2.6-7.7l-2.6,7.7
					H391.2z"/>
				<path class="st1" d="M416,707.1c0,1.1-0.3,1.9-0.8,2.7c-0.5,0.7-1.3,1.3-2.2,1.6c-0.9,0.4-1.9,0.6-3,0.6h-9.1v-18.7h10
					c0.9,0,1.6,0.2,2.3,0.7c0.6,0.5,1.1,1.1,1.5,1.8c0.3,0.7,0.5,1.5,0.5,2.3c0,0.9-0.2,1.8-0.7,2.6c-0.5,0.8-1.1,1.4-2,1.8
					c1.1,0.3,1.9,0.9,2.5,1.7C415.7,704.9,416,705.9,416,707.1z M404.6,696.3v4.7h4.9c0.4,0,0.8-0.1,1.1-0.3
					c0.3-0.2,0.6-0.5,0.8-0.8c0.2-0.4,0.3-0.8,0.3-1.3c0-0.5-0.1-0.9-0.3-1.2c-0.2-0.4-0.4-0.6-0.7-0.8c-0.3-0.2-0.7-0.3-1-0.3
					H404.6z M412.3,706.4c0-0.5-0.1-0.9-0.3-1.3c-0.2-0.4-0.5-0.7-0.8-0.9c-0.3-0.2-0.7-0.3-1.1-0.3h-5.6v4.9h5.4
					c0.4,0,0.8-0.1,1.2-0.3c0.4-0.2,0.6-0.5,0.9-0.9C412.2,707.3,412.3,706.9,412.3,706.4z"/>
				<path class="st1" d="M420.7,711.9v-18.7h3.6v15.6h9.6v3.2H420.7z"/>
				<path class="st1" d="M450.6,708.8v3.2h-13v-18.7h12.8v3.2h-9.1v4.5h7.9v3h-7.9v4.9H450.6z"/>
			</g>
			<g>
				<path class="st1" d="M475.8,708.8v3.2h-13v-18.7h12.8v3.2h-9.1v4.5h7.9v3h-7.9v4.9H475.8z"/>
				<path class="st1" d="M484.2,699.9v12h-3.6v-18.7h2.9l9.7,12.4v-12.3h3.6v18.7h-3L484.2,699.9z"/>
				<path class="st1" d="M516.1,696.4h-6v15.6h-3.6v-15.6h-6v-3.2h15.6V696.4z"/>
				<path class="st1" d="M519.7,711.9v-18.7h8.3c0.9,0,1.7,0.2,2.4,0.5c0.7,0.4,1.4,0.8,1.9,1.4c0.5,0.6,1,1.3,1.2,2
					c0.3,0.7,0.4,1.5,0.4,2.3c0,0.8-0.1,1.6-0.4,2.3c-0.3,0.7-0.7,1.4-1.2,1.9s-1.1,1-1.8,1.3l4.3,7h-4l-3.9-6.3h-3.6v6.3H519.7z
					 M523.4,702.5h4.6c0.5,0,0.9-0.1,1.2-0.4c0.4-0.3,0.6-0.6,0.8-1.1c0.2-0.5,0.3-1,0.3-1.5c0-0.6-0.1-1.1-0.4-1.6
					c-0.2-0.4-0.6-0.8-0.9-1.1c-0.4-0.3-0.8-0.4-1.2-0.4h-4.4V702.5z"/>
				<path class="st1" d="M552,708.8v3.2h-13v-18.7h12.8v3.2h-9.1v4.5h7.9v3h-7.9v4.9H552z"/>
				<path class="st1" d="M556.8,711.9v-18.7h7.9c0.9,0,1.7,0.2,2.4,0.5c0.7,0.4,1.4,0.8,1.9,1.4c0.5,0.6,1,1.3,1.3,2
					c0.3,0.7,0.4,1.5,0.4,2.3c0,1.1-0.2,2.1-0.7,3c-0.5,1-1.2,1.7-2,2.3c-0.9,0.6-1.9,0.9-3.1,0.9h-4.4v6.3H556.8z M560.4,702.5h4.2
					c0.4,0,0.8-0.1,1.2-0.4c0.4-0.2,0.6-0.6,0.8-1.1c0.2-0.5,0.3-1,0.3-1.6c0-0.7-0.1-1.2-0.4-1.7c-0.2-0.5-0.5-0.8-0.9-1
					c-0.4-0.2-0.8-0.3-1.2-0.3h-4.1V702.5z"/>
				<path class="st1" d="M574.7,711.9v-18.7h8.3c0.9,0,1.7,0.2,2.4,0.5c0.7,0.4,1.4,0.8,1.9,1.4c0.5,0.6,1,1.3,1.2,2
					c0.3,0.7,0.4,1.5,0.4,2.3c0,0.8-0.1,1.6-0.4,2.3c-0.3,0.7-0.7,1.4-1.2,1.9s-1.1,1-1.8,1.3l4.3,7h-4l-3.9-6.3h-3.6v6.3H574.7z
					 M578.3,702.5h4.6c0.5,0,0.9-0.1,1.2-0.4c0.4-0.3,0.6-0.6,0.8-1.1c0.2-0.5,0.3-1,0.3-1.5c0-0.6-0.1-1.1-0.4-1.6
					c-0.2-0.4-0.6-0.8-0.9-1.1c-0.4-0.3-0.8-0.4-1.2-0.4h-4.4V702.5z"/>
				<path class="st1" d="M607,708.8v3.2h-13v-18.7h12.8v3.2h-9.1v4.5h7.9v3h-7.9v4.9H607z"/>
				<path class="st1" d="M615.4,699.9v12h-3.6v-18.7h2.9l9.7,12.4v-12.3h3.6v18.7h-3L615.4,699.9z"/>
				<path class="st1" d="M646.7,708.8v3.2h-13v-18.7h12.8v3.2h-9.1v4.5h7.9v3h-7.9v4.9H646.7z"/>
				<path class="st1" d="M659.1,712.1c-1.5,0-2.8-0.3-3.8-0.8c-1-0.5-1.9-1.2-2.5-2.1c-0.6-0.9-1.1-1.9-1.4-3
					c-0.3-1.1-0.4-2.3-0.4-3.5v-9.6h3.6v9.6c0,0.8,0.1,1.5,0.2,2.3c0.1,0.7,0.4,1.4,0.8,2c0.4,0.6,0.8,1,1.4,1.4
					c0.6,0.3,1.3,0.5,2.2,0.5c0.9,0,1.6-0.2,2.2-0.5c0.6-0.3,1.1-0.8,1.4-1.4c0.3-0.6,0.6-1.2,0.8-2c0.2-0.7,0.2-1.5,0.2-2.2v-9.6
					h3.6v9.6c0,1.3-0.2,2.5-0.5,3.6c-0.3,1.1-0.8,2.1-1.5,3c-0.7,0.9-1.5,1.5-2.5,2C661.8,711.8,660.6,712.1,659.1,712.1z"/>
				<path class="st1" d="M672.8,711.9v-18.7h8.3c0.9,0,1.7,0.2,2.4,0.5c0.7,0.4,1.4,0.8,1.9,1.4c0.5,0.6,1,1.3,1.2,2
					c0.3,0.7,0.4,1.5,0.4,2.3c0,0.8-0.1,1.6-0.4,2.3c-0.3,0.7-0.7,1.4-1.2,1.9s-1.1,1-1.8,1.3l4.3,7h-4l-3.9-6.3h-3.6v6.3H672.8z
					 M676.4,702.5h4.6c0.5,0,0.9-0.1,1.2-0.4c0.4-0.3,0.6-0.6,0.8-1.1c0.2-0.5,0.3-1,0.3-1.5c0-0.6-0.1-1.1-0.4-1.6
					c-0.2-0.4-0.6-0.8-0.9-1.1c-0.4-0.3-0.8-0.4-1.2-0.4h-4.4V702.5z"/>
				<path class="st1" d="M703.1,698.1c-0.1-0.1-0.3-0.3-0.7-0.5c-0.3-0.2-0.7-0.4-1.2-0.6c-0.5-0.2-1-0.4-1.5-0.5
					c-0.5-0.1-1.1-0.2-1.7-0.2c-1,0-1.7,0.2-2.2,0.6c-0.5,0.4-0.8,0.9-0.8,1.5c0,0.5,0.2,0.9,0.5,1.2c0.3,0.3,0.8,0.6,1.4,0.8
					c0.6,0.2,1.4,0.4,2.4,0.7c1.2,0.3,2.3,0.7,3.2,1.1c0.9,0.4,1.6,1,2.1,1.7c0.5,0.7,0.7,1.6,0.7,2.7c0,1-0.2,1.9-0.6,2.6
					c-0.4,0.7-0.9,1.3-1.5,1.7c-0.7,0.4-1.4,0.8-2.2,1s-1.7,0.3-2.6,0.3s-1.9-0.1-2.8-0.3c-0.9-0.2-1.8-0.5-2.7-0.8
					c-0.9-0.4-1.7-0.8-2.4-1.3l1.6-3.1c0.2,0.2,0.4,0.4,0.8,0.6c0.4,0.3,0.9,0.5,1.5,0.8c0.6,0.3,1.2,0.5,1.9,0.6
					c0.7,0.2,1.4,0.3,2.1,0.3c1,0,1.7-0.2,2.2-0.5c0.5-0.3,0.8-0.8,0.8-1.4c0-0.6-0.2-1-0.6-1.3c-0.4-0.3-1-0.6-1.7-0.8
					c-0.7-0.2-1.6-0.5-2.6-0.8c-1.2-0.3-2.2-0.7-3-1.1c-0.8-0.4-1.4-0.9-1.8-1.6c-0.4-0.6-0.6-1.4-0.6-2.4c0-1.3,0.3-2.4,0.9-3.2
					c0.6-0.9,1.4-1.5,2.5-2c1-0.4,2.2-0.7,3.5-0.7c0.9,0,1.7,0.1,2.5,0.3c0.8,0.2,1.5,0.4,2.2,0.8c0.7,0.3,1.3,0.7,1.8,1
					L703.1,698.1z"/>
				<path class="st1" d="M725.7,693.2v18.7H722v-8h-8.5v8h-3.6v-18.7h3.6v7.6h8.5v-7.6H725.7z"/>
				<path class="st1" d="M731.3,711.9v-18.7h3.6v18.7H731.3z"/>
				<path class="st1" d="M740.6,711.9v-18.7h7.9c0.9,0,1.7,0.2,2.4,0.5c0.7,0.4,1.4,0.8,1.9,1.4c0.5,0.6,1,1.3,1.3,2
					c0.3,0.7,0.4,1.5,0.4,2.3c0,1.1-0.2,2.1-0.7,3c-0.5,1-1.2,1.7-2,2.3c-0.9,0.6-1.9,0.9-3.1,0.9h-4.4v6.3H740.6z M744.3,702.5h4.2
					c0.4,0,0.8-0.1,1.2-0.4c0.4-0.2,0.6-0.6,0.8-1.1c0.2-0.5,0.3-1,0.3-1.6c0-0.7-0.1-1.2-0.4-1.7c-0.2-0.5-0.5-0.8-0.9-1
					c-0.4-0.2-0.8-0.3-1.2-0.3h-4.1V702.5z"/>
			</g>
		</g>
		<g>
			<g>
				<polygon class="st1" points="246.3,302 246.3,323.5 277.4,323.5 277.4,404.6 301.7,404.6 301.7,323.5 332.7,323.5 332.7,302 
									"/>
				<polygon class="st1" points="411.8,302 411.8,341.4 372,341.4 372,302 347.7,302 347.7,404.6 372,404.6 372,362.9 411.8,362.9 
					411.8,404.6 436.1,404.6 436.1,302 				"/>
				<polygon class="st1" points="477.2,383.2 477.2,362.4 517.3,362.4 517.3,342.4 477.2,342.4 477.2,323.5 523.9,323.5 523.9,302 
					452.8,302 452.8,404.6 525.2,404.6 525.2,383.2 				"/>
			</g>
			<g>
				<path class="st1" d="M322.7,480.2c-2.6-3.8-6.3-7-11.1-9.5c-4.8-2.4-10.5-4.5-17-6.2c-4.5-1.3-8.4-2.5-11.6-3.5
					c-3.1-1-5.5-2.1-7.1-3.4c-1.6-1.3-2.4-2.9-2.4-5.1c0-2.7,1-4.7,3.1-6c2.1-1.3,5.2-2,9.1-2c3,0,6.1,0.4,9.1,1.3
					c3,0.9,5.9,1.9,8.4,3c2.6,1.1,4.7,2.2,6.4,3.2c2.2,1.3,2.7,1.8,2.9,2.1l0.4,0.6l10.9-20.5l-0.4-0.2c-3.1-1.7-6.6-3.5-10.4-5.2
					c-3.9-1.7-8.1-3.2-12.5-4.3c-4.5-1.1-9.1-1.7-13.9-1.7c-6.8,0-13.2,1.3-18.9,3.8c-5.8,2.5-10.4,6.3-13.9,11.3
					c-3.4,4.9-5.2,11.1-5.2,18.3c0,5.2,1,9.6,3,13c2,3.5,5.1,6.4,9.2,8.8c4.1,2.4,9.3,4.6,15.5,6.5c4.8,1.4,9.1,2.7,12.7,3.8
					c3.6,1.1,6.5,2.4,8.6,3.8c2,1.4,3,3.2,3,5.6c0,2.2-0.9,3.9-2.9,5.1c-2,1.3-5.1,1.9-9.2,1.9c-3.9,0-7.7-0.5-11.5-1.6
					c-3.8-1-7.3-2.3-10.3-3.6c-3.1-1.4-5.7-2.7-7.8-4c-2.6-1.6-3.4-2.3-3.6-2.6l-0.4-0.5L244,513.9l0.3,0.2c4,2.7,8.5,5,13.3,6.9
					c4.8,1.9,9.8,3.3,15.1,4.3c5.2,1,10.4,1.5,15.3,1.5c4.9,0,9.7-0.6,14.3-1.6c4.6-1.1,8.8-2.9,12.4-5.3c3.6-2.4,6.5-5.7,8.7-9.7
					c2.1-4,3.2-8.9,3.2-14.7C326.5,489.2,325.2,484,322.7,480.2z"/>
				<path class="st1" d="M435.8,455.9c-2.4-6.2-5.9-11.8-10.3-16.8c-4.5-5-9.9-9-16-11.9c-6.2-2.9-13.2-4.4-20.8-4.4
					c-7.4,0-14.3,1.4-20.5,4.2c-6.2,2.8-11.7,6.6-16.3,11.5c-4.6,4.8-8.2,10.4-10.7,16.5c-2.5,6.1-3.8,12.7-3.8,19.5
					c0,6.6,1.2,13.1,3.6,19.3c2.4,6.2,5.9,11.8,10.3,16.8c4.5,4.9,9.9,8.9,16,11.9c6.2,2.9,13.2,4.4,20.9,4.4
					c7.4,0,14.3-1.4,20.5-4.3c6.2-2.8,11.7-6.7,16.3-11.6c4.6-4.8,8.2-10.4,10.7-16.5c2.5-6.1,3.8-12.7,3.8-19.5
					C439.4,468.5,438.2,462.1,435.8,455.9z M400,502.4c-3.3,1.7-7.2,2.6-11.6,2.6c-4.2,0-8-0.9-11.3-2.5c-3.3-1.7-6.1-4-8.2-6.8
					c-2.2-2.8-3.9-6.1-5-9.7c-1.1-3.6-1.7-7.4-1.7-11.3c0-3.8,0.5-7.5,1.6-11.1c1.1-3.6,2.7-6.9,4.9-9.8c2.2-2.9,4.9-5.2,8.2-6.8
					c3.2-1.7,7.1-2.5,11.5-2.5c4.1,0,7.9,0.8,11.1,2.4c3.3,1.6,6.1,3.8,8.3,6.7c2.3,2.9,4,6.1,5.1,9.7c1.1,3.6,1.7,7.3,1.7,11.2
					c0,3.8-0.5,7.5-1.6,11.1c-1.1,3.6-2.7,6.9-4.9,9.8C406,498.4,403.2,500.7,400,502.4z"/>
				<path class="st1" d="M525.7,490.8l-0.2,0.5c-1.3,3.3-3.2,5.9-5.7,7.9c-2.5,2-5.2,3.5-8.1,4.4c-2.9,0.9-5.8,1.4-8.6,1.4
					c-3.9,0-7.6-0.8-10.9-2.5c-3.3-1.6-6.1-3.9-8.4-6.7c-2.3-2.8-4.1-6.1-5.3-9.8c-1.2-3.7-1.8-7.5-1.8-11.5c0-3.6,0.5-7.2,1.6-10.8
					c1-3.6,2.6-6.9,4.8-9.8c2.1-2.9,4.9-5.2,8.2-7c3.3-1.7,7.2-2.6,11.6-2.6c2.7,0,5.6,0.4,8.6,1.2c2.9,0.8,5.7,2.2,8.2,4.2
					c2.5,2,4.5,4.7,6,8.3l0.2,0.5l18.8-13.1l-0.2-0.3c-3.5-6.6-8.8-12.1-15.9-16.2c-7.1-4.1-15.5-6.2-25.1-6.2
					c-8.1,0-15.3,1.5-21.7,4.4c-6.3,2.9-11.8,6.9-16.2,11.8c-4.4,4.9-7.8,10.4-10.1,16.4c-2.3,6-3.5,12.2-3.5,18.4
					c0,6.5,1.2,13,3.7,19.3c2.4,6.3,5.9,12,10.4,17c4.5,5,9.9,9.1,16,12.1c6.2,3,13.1,4.6,20.5,4.6c5.7,0,11.5-0.9,17.3-2.8
					c5.8-1.9,11.1-4.6,15.7-8.2c4.6-3.6,8-7.9,10-12.9l0.1-0.3L525.7,490.8z"/>
				<rect x="559" y="423.5" class="st1" width="24.3" height="102.6"/>
				<path class="st1" d="M658.8,423.7l-0.1-0.3h-26l-35.2,102.1l-0.2,0.6h25l6.9-22.8h32.9l6.9,22.8h25L658.8,423.7z M656.9,486.3
					h-22.6l11.3-37.3L656.9,486.3z"/>
				<polygon class="st1" points="731.7,504.6 731.7,423.5 707.3,423.5 707.3,526.1 781,526.1 781,504.6 				"/>
			</g>
			<g>
				<path class="st1" d="M320.3,613l-0.2,0.5c-1.3,3.3-3.2,5.9-5.7,7.9c-2.5,2-5.2,3.5-8.1,4.4c-2.9,0.9-5.8,1.4-8.6,1.4
					c-3.9,0-7.6-0.8-10.9-2.5c-3.3-1.6-6.1-3.9-8.4-6.7c-2.3-2.8-4.1-6.1-5.3-9.8c-1.2-3.7-1.8-7.5-1.8-11.5c0-3.6,0.5-7.2,1.6-10.8
					c1-3.6,2.6-6.9,4.8-9.8c2.1-2.9,4.9-5.2,8.2-7c3.3-1.7,7.2-2.6,11.6-2.6c2.7,0,5.6,0.4,8.6,1.2c2.9,0.8,5.7,2.2,8.2,4.2
					c2.5,2,4.5,4.7,6,8.3l0.2,0.5l18.8-13.1l-0.2-0.3c-3.5-6.6-8.8-12.1-15.9-16.2c-7.1-4.1-15.5-6.2-25.1-6.2
					c-8.1,0-15.3,1.5-21.7,4.4c-6.3,2.9-11.8,6.9-16.2,11.8c-4.4,4.9-7.8,10.4-10.1,16.4c-2.3,6-3.5,12.2-3.5,18.4
					c0,6.5,1.2,13,3.7,19.3c2.4,6.3,5.9,12,10.4,17c4.5,5,9.9,9.1,16,12.1c6.2,3,13.1,4.6,20.5,4.6c5.7,0,11.5-0.9,17.3-2.8
					c5.8-1.9,11.1-4.6,15.7-8.2c4.6-3.6,8-7.9,10-12.9l0.1-0.3L320.3,613z"/>
				<rect x="353.3" y="545.6" class="st1" width="24.3" height="102.6"/>
				<path class="st1" d="M457.8,610.1c3.3-1.9,6.2-4.3,8.6-7.3c2.5-3,4.5-6.5,5.8-10.3c1.3-3.8,2-7.9,2-12.1c0-4.2-0.9-8.5-2.5-12.6
					c-1.7-4.1-4-7.9-7-11.2c-3-3.3-6.6-6-10.7-8c-4.1-2-8.6-3-13.4-3h-46.3v102.6h24.3v-32.8h15.3l19.5,32.8h26.9L457.8,610.1z
					 M418.7,567.1H439c1.7,0,3.4,0.6,4.9,1.6c1.6,1.1,2.9,2.7,4,4.7c1.1,2,1.6,4.4,1.6,7c0,2.7-0.5,5.1-1.4,7.1
					c-0.9,2-2.1,3.6-3.5,4.8c-1.4,1.1-3,1.7-4.8,1.7h-21.1V567.1z"/>
				<path class="st1" d="M560,613l-0.2,0.5c-1.3,3.3-3.2,5.9-5.7,7.9c-2.5,2-5.2,3.5-8.1,4.4c-2.9,0.9-5.8,1.4-8.6,1.4
					c-3.9,0-7.6-0.8-10.9-2.5c-3.3-1.6-6.1-3.9-8.4-6.7c-2.3-2.8-4.1-6.1-5.3-9.8c-1.2-3.7-1.8-7.5-1.8-11.5c0-3.6,0.5-7.2,1.6-10.8
					c1-3.6,2.6-6.9,4.8-9.8c2.1-2.9,4.9-5.2,8.2-7c3.3-1.7,7.2-2.6,11.6-2.6c2.7,0,5.6,0.4,8.6,1.2c2.9,0.8,5.7,2.2,8.2,4.2
					c2.5,2,4.5,4.7,6,8.3l0.2,0.5l18.8-13.1l-0.2-0.3c-3.5-6.6-8.8-12.1-15.9-16.2c-7.1-4.1-15.5-6.2-25.1-6.2
					c-8.1,0-15.3,1.5-21.7,4.4c-6.3,2.9-11.8,6.9-16.2,11.8c-4.4,4.9-7.8,10.4-10.1,16.4c-2.3,6-3.5,12.2-3.5,18.4
					c0,6.5,1.2,13,3.7,19.3c2.4,6.3,5.9,12,10.4,17c4.5,5,9.9,9.1,16,12.1c6.2,3,13.1,4.6,20.5,4.6c5.7,0,11.5-0.9,17.3-2.8
					c5.8-1.9,11.1-4.6,15.7-8.2c4.6-3.6,8-7.9,10-12.9l0.1-0.3L560,613z"/>
				<polygon class="st1" points="616.8,626.8 616.8,545.6 592.4,545.6 592.4,648.3 666.1,648.3 666.1,626.8 				"/>
				<polygon class="st1" points="703.8,626.8 703.8,606 743.9,606 743.9,586.1 703.8,586.1 703.8,567.1 750.5,567.1 750.5,545.6 
					679.5,545.6 679.5,648.3 751.8,648.3 751.8,626.8 				"/>
			</g>
		</g>
	</g>
</g>
</svg>
