<?xml version="1.0" encoding="utf-8"?>
<!-- Generator: Adobe Illustrator 25.2.1, SVG Export Plug-In . SVG Version: 6.00 Build 0)  -->
<svg version="1.1" id="Capa_1" xmlns="http://www.w3.org/2000/svg" xmlns:xlink="http://www.w3.org/1999/xlink" x="0px" y="0px"
	 viewBox="0 0 100 77.2" style="enable-background:new 0 0 100 77.2;" xml:space="preserve">
<style type="text/css">
	.st0{fill:#D5F2E3;}
	.st1{fill:#008081;}
	.st2{fill:#BA2D0B;}
</style>
<g>
	<path class="st0" d="M18.1,6.4h-5.7v15H8v-15H2.2V2.5h15.9V6.4z"/>
	<path class="st0" d="M36.4,2.5v18.9h-4.4v-7.7h-7.5v7.7h-4.4V2.5h4.4v7.3h7.5V2.5H36.4z"/>
	<path class="st0" d="M53.3,17.6v3.8H40V2.5h13v3.8h-8.7V10h7.4v3.5h-7.4v4H53.3z"/>
	<path class="st1" d="M15,34.6c-0.1-0.1-0.2-0.2-0.6-0.4c-0.3-0.2-0.7-0.4-1.2-0.6c-0.5-0.2-1-0.4-1.6-0.6c-0.6-0.2-1.1-0.2-1.7-0.2
		c-1.6,0-2.3,0.5-2.3,1.6c0,0.3,0.1,0.6,0.3,0.8c0.2,0.2,0.4,0.4,0.7,0.6c0.3,0.2,0.7,0.3,1.2,0.5c0.5,0.1,1.1,0.3,1.7,0.5
		c0.9,0.2,1.7,0.5,2.4,0.8c0.7,0.3,1.3,0.7,1.8,1.1c0.5,0.4,0.9,1,1.2,1.6c0.3,0.6,0.4,1.4,0.4,2.2c0,1.1-0.2,2-0.6,2.7
		c-0.4,0.7-0.9,1.3-1.6,1.8c-0.7,0.5-1.4,0.8-2.3,1c-0.9,0.2-1.7,0.3-2.6,0.3c-0.7,0-1.4-0.1-2.1-0.2c-0.7-0.1-1.4-0.3-2.1-0.5
		c-0.7-0.2-1.4-0.4-2-0.7c-0.6-0.3-1.2-0.6-1.8-1L4.3,42c0.1,0.1,0.3,0.3,0.7,0.5c0.4,0.2,0.9,0.5,1.4,0.7c0.6,0.2,1.2,0.5,1.9,0.7
		c0.7,0.2,1.4,0.3,2.2,0.3c1.5,0,2.3-0.5,2.3-1.4c0-0.4-0.1-0.6-0.3-0.9c-0.2-0.2-0.5-0.4-1-0.6c-0.4-0.2-0.9-0.4-1.4-0.5
		c-0.6-0.2-1.2-0.3-1.8-0.5C7.4,40,6.6,39.7,6,39.4s-1.2-0.7-1.6-1.1c-0.4-0.4-0.7-0.9-0.9-1.4c-0.2-0.5-0.3-1.2-0.3-1.9
		c0-1,0.2-1.9,0.6-2.6c0.4-0.8,0.9-1.4,1.5-1.9c0.6-0.5,1.4-0.9,2.2-1.2c0.8-0.3,1.7-0.4,2.7-0.4c0.7,0,1.3,0.1,1.9,0.2
		c0.6,0.1,1.2,0.3,1.8,0.5c0.6,0.2,1.1,0.4,1.6,0.7c0.5,0.2,1,0.5,1.4,0.7L15,34.6z"/>
	<path class="st1" d="M28.3,48.1c-1.4,0-2.7-0.3-3.8-0.8c-1.2-0.5-2.1-1.3-2.9-2.2c-0.8-0.9-1.4-1.9-1.9-3.1
		c-0.5-1.2-0.7-2.3-0.7-3.6c0-1.2,0.2-2.4,0.7-3.6c0.5-1.2,1.1-2.2,2-3s1.8-1.6,3-2.1c1.2-0.5,2.4-0.8,3.8-0.8
		c1.4,0,2.7,0.3,3.8,0.8c1.2,0.5,2.1,1.3,2.9,2.2c0.8,0.9,1.4,1.9,1.9,3.1c0.4,1.2,0.7,2.3,0.7,3.5c0,1.2-0.2,2.4-0.7,3.6
		c-0.5,1.2-1.1,2.2-2,3c-0.8,0.9-1.8,1.6-3,2.1C30.9,47.9,29.7,48.1,28.3,48.1z M23.4,38.6c0,0.7,0.1,1.4,0.3,2.1
		c0.2,0.7,0.5,1.3,0.9,1.8c0.4,0.5,0.9,1,1.6,1.3c0.6,0.3,1.3,0.5,2.1,0.5c0.8,0,1.6-0.2,2.2-0.5c0.6-0.3,1.1-0.8,1.5-1.3
		c0.4-0.5,0.7-1.2,0.9-1.8c0.2-0.7,0.3-1.4,0.3-2.1c0-0.7-0.1-1.4-0.3-2.1c-0.2-0.7-0.5-1.3-1-1.8c-0.4-0.5-0.9-0.9-1.6-1.2
		c-0.6-0.3-1.3-0.5-2.1-0.5c-0.8,0-1.6,0.2-2.2,0.5c-0.6,0.3-1.1,0.8-1.5,1.3c-0.4,0.5-0.7,1.1-0.9,1.8
		C23.5,37.1,23.4,37.8,23.4,38.6z"/>
	<path class="st1" d="M39.1,38.4c0-1.1,0.2-2.3,0.6-3.4c0.4-1.1,1-2.1,1.9-3c0.8-0.9,1.8-1.6,3-2.2c1.2-0.5,2.5-0.8,4-0.8
		c1.8,0,3.3,0.4,4.6,1.1c1.3,0.8,2.3,1.8,2.9,3l-3.3,2.3c-0.2-0.5-0.5-0.9-0.8-1.2c-0.3-0.3-0.7-0.6-1.1-0.8
		c-0.4-0.2-0.8-0.3-1.2-0.4c-0.4-0.1-0.8-0.1-1.2-0.1c-0.8,0-1.6,0.2-2.2,0.5c-0.6,0.3-1.1,0.8-1.5,1.3c-0.4,0.5-0.7,1.1-0.9,1.8
		c-0.2,0.7-0.3,1.4-0.3,2c0,0.7,0.1,1.5,0.3,2.2c0.2,0.7,0.6,1.3,1,1.8c0.4,0.5,1,1,1.6,1.3c0.6,0.3,1.3,0.5,2.1,0.5
		c0.4,0,0.8,0,1.2-0.1c0.4-0.1,0.8-0.2,1.2-0.5c0.4-0.2,0.7-0.5,1-0.8c0.3-0.3,0.6-0.7,0.8-1.2l3.6,2.1c-0.3,0.7-0.7,1.3-1.3,1.9
		s-1.2,1-1.9,1.4c-0.7,0.4-1.5,0.7-2.3,0.8c-0.8,0.2-1.6,0.3-2.4,0.3c-1.4,0-2.6-0.3-3.8-0.8c-1.1-0.6-2.1-1.3-2.9-2.2
		c-0.8-0.9-1.5-2-1.9-3.1C39.4,40.8,39.1,39.6,39.1,38.4z"/>
	<path class="st1" d="M58.5,48V29.1h4.4V48H58.5z"/>
	<path class="st1" d="M71.6,29.1h3.9L82.4,48H78l-1.5-4.2h-5.9L69.2,48h-4.5L71.6,29.1z M75.8,40.7l-2.2-6.7l-2.3,6.7H75.8z"/>
	<path class="st1" d="M84.3,48V29.1h4.4v15h9.1V48H84.3z"/>
	<path class="st2" d="M2.6,64.9c0-1.1,0.2-2.3,0.6-3.4c0.4-1.1,1-2.1,1.9-3c0.8-0.9,1.8-1.6,3-2.2c1.2-0.5,2.5-0.8,4-0.8
		c1.8,0,3.3,0.4,4.6,1.1c1.3,0.8,2.3,1.8,2.9,3L16.2,62c-0.2-0.5-0.5-0.9-0.8-1.2c-0.3-0.3-0.7-0.6-1.1-0.8
		c-0.4-0.2-0.8-0.3-1.2-0.4c-0.4-0.1-0.8-0.1-1.2-0.1c-0.8,0-1.6,0.2-2.2,0.5c-0.6,0.3-1.1,0.8-1.5,1.3c-0.4,0.5-0.7,1.1-0.9,1.8
		c-0.2,0.7-0.3,1.4-0.3,2c0,0.7,0.1,1.5,0.3,2.2c0.2,0.7,0.6,1.3,1,1.8c0.4,0.5,1,1,1.6,1.3c0.6,0.3,1.3,0.5,2.1,0.5
		c0.4,0,0.8,0,1.2-0.1c0.4-0.1,0.8-0.2,1.2-0.5c0.4-0.2,0.7-0.5,1-0.8c0.3-0.3,0.6-0.7,0.8-1.2l3.6,2.1c-0.3,0.7-0.7,1.3-1.3,1.9
		s-1.2,1-1.9,1.4c-0.7,0.4-1.5,0.7-2.3,0.8c-0.8,0.2-1.6,0.3-2.4,0.3c-1.4,0-2.6-0.3-3.8-0.8C7,73.3,6,72.6,5.2,71.6
		c-0.8-0.9-1.5-2-1.9-3.1C2.8,67.3,2.6,66.1,2.6,64.9z"/>
	<path class="st2" d="M22,74.5V55.7h4.4v18.9H22z"/>
	<path class="st2" d="M30,74.5V55.7h8.5c0.9,0,1.7,0.2,2.5,0.6c0.8,0.4,1.4,0.9,2,1.5c0.5,0.6,1,1.3,1.3,2c0.3,0.8,0.5,1.5,0.5,2.3
		c0,0.6-0.1,1.1-0.2,1.7c-0.1,0.5-0.3,1-0.6,1.5c-0.3,0.5-0.6,0.9-1,1.3c-0.4,0.4-0.8,0.7-1.3,1l4.1,7h-4.9l-3.6-6.1h-2.8v6.1H30z
		 M34.3,64.6h4c0.5,0,1-0.2,1.3-0.7s0.6-1.1,0.6-1.9c0-0.8-0.2-1.4-0.6-1.9c-0.4-0.5-0.9-0.7-1.4-0.7h-3.9V64.6z"/>
	<path class="st2" d="M46.7,64.9c0-1.1,0.2-2.3,0.6-3.4c0.4-1.1,1-2.1,1.9-3c0.8-0.9,1.8-1.6,3-2.2c1.2-0.5,2.5-0.8,4-0.8
		c1.8,0,3.3,0.4,4.6,1.1c1.3,0.8,2.3,1.8,2.9,3L60.3,62c-0.2-0.5-0.5-0.9-0.8-1.2c-0.3-0.3-0.7-0.6-1.1-0.8
		c-0.4-0.2-0.8-0.3-1.2-0.4c-0.4-0.1-0.8-0.1-1.2-0.1c-0.8,0-1.6,0.2-2.2,0.5c-0.6,0.3-1.1,0.8-1.5,1.3c-0.4,0.5-0.7,1.1-0.9,1.8
		c-0.2,0.7-0.3,1.4-0.3,2c0,0.7,0.1,1.5,0.3,2.2c0.2,0.7,0.6,1.3,1,1.8c0.4,0.5,1,1,1.6,1.3c0.6,0.3,1.3,0.5,2.1,0.5
		c0.4,0,0.8,0,1.2-0.1s0.8-0.2,1.2-0.5c0.4-0.2,0.7-0.5,1-0.8c0.3-0.3,0.6-0.7,0.8-1.2l3.6,2.1c-0.3,0.7-0.7,1.3-1.3,1.9
		c-0.6,0.5-1.2,1-1.9,1.4c-0.7,0.4-1.5,0.7-2.3,0.8c-0.8,0.2-1.6,0.3-2.4,0.3c-1.4,0-2.6-0.3-3.8-0.8c-1.1-0.6-2.1-1.3-2.9-2.2
		c-0.8-0.9-1.5-2-1.9-3.1C46.9,67.3,46.7,66.1,46.7,64.9z"/>
	<path class="st2" d="M66,74.5V55.7h4.4v15h9.1v3.8H66z"/>
	<path class="st2" d="M94.8,70.7v3.8H81.6V55.7h13v3.8h-8.7v3.7h7.4v3.5h-7.4v4H94.8z"/>
</g>
</svg>
