<?xml version="1.0" encoding="utf-8"?>
<!-- Generator: Adobe Illustrator 25.2.3, SVG Export Plug-In . SVG Version: 6.00 Build 0)  -->
<svg version="1.1" id="Layer_1" xmlns="http://www.w3.org/2000/svg" xmlns:xlink="http://www.w3.org/1999/xlink" x="0px" y="0px"
	 viewBox="0 0 1603 964.3" style="enable-background:new 0 0 1603 964.3;" xml:space="preserve">
<style type="text/css">
	.st0{fill:#B3D2C0;}
	.st1{fill:#008082;}
	.st2{fill:#BD2027;}
	.st3{font-family:'Raleway-Bold';}
	.st4{font-size:57.4005px;}
	.st5{letter-spacing:4;}
</style>
<g>
	<g>
		<path class="st0" d="M487,54.3h-65.2v172.5h-62.3V54.3H294V0H487V54.3z"/>
		<path class="st0" d="M706.5,0v226.8h-62.3V138h-76v88.8h-62.3V0h62.3v83.7h76V0H706.5z"/>
		<path class="st0" d="M886.7,172.5v54.3h-155V0h155v54.3h-92.7v31.9h79.5v50.5h-79.5v35.8H886.7z"/>
	</g>
	<g>
		<path class="st1" d="M720.7,509c-17.3,0-32.9-3.2-47-9.7c-14.1-6.5-26.1-15.2-36.3-26.2c-10.1-11-17.9-23.3-23.3-37.1
			c-5.4-13.7-8.1-27.9-8.1-42.6c0-15.1,2.9-29.5,8.6-43.1c5.7-13.6,13.8-25.8,24.1-36.6c10.3-10.7,22.6-19.2,36.7-25.4
			c14.2-6.2,29.7-9.3,46.5-9.3c17.2,0,32.9,3.3,47,9.7c14.1,6.5,26.1,15.3,36.1,26.4c10,11.1,17.7,23.5,23.2,37.2
			c5.4,13.7,8.1,27.8,8.1,42.3c0,14.9-2.8,29.2-8.5,42.8c-5.6,13.6-13.6,25.8-24,36.6c-10.3,10.8-22.5,19.3-36.6,25.6
			C753.2,505.9,737.7,509,720.7,509z M669.2,394c0,7.7,1.1,15.1,3.2,22.2c2.1,7.1,5.3,13.5,9.6,19.2c4.3,5.6,9.6,10.1,16.1,13.4
			c6.5,3.3,14.2,5,23.2,5c8.9,0,16.7-1.7,23.3-5.1c6.6-3.4,12-8,16.1-13.9c4.2-5.9,7.2-12.3,9.3-19.5c2-7.1,3-14.4,3-21.9
			c0-7.7-1.1-15-3.2-22c-2.1-7-5.3-13.4-9.6-19c-4.3-5.6-9.7-10.1-16.3-13.3c-6.6-3.2-14.3-4.8-23-4.8c-8.9,0-16.7,1.7-23.2,5.1
			c-6.5,3.4-11.9,7.9-16.1,13.6c-4.3,5.6-7.4,12-9.4,19.2C670.2,379.3,669.2,386.6,669.2,394z"/>
		<path class="st1" d="M850.3,391.8c0-13.8,2.6-27.4,7.8-40.7c5.2-13.3,12.8-25.4,22.8-36.3c10-10.9,22.2-19.5,36.6-26
			c14.4-6.5,30.6-9.7,48.7-9.7c21.7,0,40.7,4.5,56.9,13.6c16.2,9.1,28.2,21,36.1,35.9l-47.6,33.9c-2.8-7.5-6.8-13.2-12-17.2
			c-5.2-4-10.9-6.9-16.9-8.5c-6.1-1.6-12-2.4-17.7-2.4c-8.9,0-16.7,1.8-23.2,5.3c-6.5,3.5-11.8,8.1-16,13.9
			c-4.2,5.8-7.2,12.1-9.3,19.2c-2,7-3,14.1-3,21.1c0,7.9,1.2,15.4,3.5,22.7c2.3,7.2,5.7,13.7,10.2,19.3c4.5,5.6,10,10.1,16.4,13.3
			c6.5,3.2,13.8,4.8,21.9,4.8c5.7,0,11.6-0.9,17.6-2.7c6-1.8,11.4-4.7,16.3-8.8c4.9-4,8.6-9.5,11.2-16.3l50.8,30.3
			c-4.5,11.1-11.9,20.6-22.4,28.4c-10.4,7.9-22.3,13.9-35.5,18c-13.2,4.2-26.3,6.2-39.3,6.2c-16.8,0-32.2-3.4-46.2-10.1
			c-14-6.7-26-15.7-36.1-26.8c-10.1-11.2-17.9-23.7-23.5-37.7C853.1,420.5,850.3,406.3,850.3,391.8z"/>
		<path class="st1" d="M1076.3,507.4V280.7h62.3v226.8H1076.3z"/>
		<path class="st1" d="M1223.8,280.7h69.6l72.2,226.8h-63.2l-11.7-44.4h-64.1l-11.7,44.4h-63.6L1223.8,280.7z M1279.6,421.5
			l-21.1-79.9l-21.1,79.9H1279.6z"/>
		<path class="st1" d="M1378.2,507.4V280.7h62.3v172.5h102.8v54.3H1378.2z"/>
		<path class="st1" d="M566,355.1c-7.2-4.3-13.8-7.7-19.8-10.4c-6-2.7-12.5-5.1-19.5-7.2c-7-2.1-13.9-3.2-20.8-3.2
			c-5.3,0-9.7,0.8-13.1,2.5c-3.4,1.7-5.1,4.5-5.1,8.5c0,3.8,1.7,6.9,5.1,9.2c3.4,2.3,8.2,4.4,14.5,6.3c6.3,1.9,13.8,4.2,22.5,7
			c14.1,4.2,26.2,9.1,36.4,14.6c10.2,5.5,18.1,12.5,23.6,21.1c5.5,8.5,8.3,19.9,8.3,34c0,13.5-2.4,24.8-7.3,34
			c-4.9,9.2-11.5,16.5-19.8,22c-8.3,5.5-17.6,9.4-27.8,11.9c-10.2,2.4-20.7,3.6-31.3,3.6c-10.9,0-22.2-1.1-34-3.4
			c-11.8-2.2-23.3-5.3-34.3-9.3c-11.1-3.9-15-6.4-19-9c0,0,15-23.1,21.6-55.5c7,4,10.2,5.3,17.2,8.5c7,3.2,14.9,6.1,23.5,8.6
			c8.6,2.6,17.3,3.8,26,3.8c6.8,0,11.5-0.9,14.2-2.6c2.7-1.7,4-4,4-6.9c0-4.4-2.3-7.9-7-10.3c-4.7-2.4-10.8-4.8-18.4-7
			c-7.6-2.2-15.9-4.8-25.1-7.8c-13.2-4.4-24.1-9.5-32.6-15.1c-8.5-5.6-14.8-12.3-18.8-20c-4-7.7-6.1-17.1-6.1-28.1
			c0-16.7,3.9-30.7,11.8-41.9c7.9-11.2,18.3-19.7,31.1-25.5c12.9-5.8,26.8-8.7,41.7-8.7c11.1,0,21.8,1.3,32.1,4
			c10.3,2.7,20,5.9,29.1,9.7c9,3.8,17,7.5,23.8,10.9L566,355.1z"/>
	</g>
	<g>
		<path class="st2" d="M306.8,672.5c0-13.8,2.6-27.4,7.8-40.7c5.2-13.3,12.8-25.4,22.8-36.3c10-10.9,22.2-19.5,36.6-26
			c14.4-6.5,30.6-9.7,48.7-9.7c21.7,0,40.7,4.5,56.9,13.6c16.2,9.1,28.2,21,36.1,35.9l-47.6,33.9c-2.8-7.5-6.8-13.2-12-17.2
			c-5.2-4-10.9-6.9-16.9-8.5c-6.1-1.6-12-2.4-17.7-2.4c-8.9,0-16.7,1.8-23.2,5.3c-6.5,3.5-11.8,8.1-16,13.9
			c-4.2,5.8-7.2,12.1-9.3,19.2c-2,7-3,14.1-3,21.1c0,7.9,1.2,15.4,3.5,22.7c2.3,7.2,5.8,13.7,10.2,19.3c4.5,5.6,10,10.1,16.4,13.3
			c6.5,3.2,13.8,4.8,21.9,4.8c5.7,0,11.6-0.9,17.6-2.7c6-1.8,11.4-4.7,16.3-8.8c4.9-4,8.6-9.5,11.2-16.3l50.8,30.3
			c-4.5,11.1-11.9,20.6-22.4,28.4c-10.4,7.9-22.3,13.9-35.5,18c-13.2,4.2-26.3,6.2-39.3,6.2c-16.8,0-32.2-3.4-46.2-10.1
			c-13.9-6.7-26-15.7-36.1-26.8c-10.1-11.2-17.9-23.7-23.5-37.7C309.6,701.2,306.8,687,306.8,672.5z"/>
		<path class="st2" d="M534.7,788.2V561.4H597v226.8H534.7z"/>
		<path class="st2" d="M628,788.2V561.4h104.1c11.1,0,21.3,2.2,30.7,6.7c9.4,4.5,17.5,10.5,24.3,18c6.8,7.6,12.1,16,15.8,25.4
			c3.7,9.4,5.6,18.8,5.6,28.4c0,8.7-1.3,17.1-3.8,25.2c-2.6,8.1-6.3,15.5-11.2,22.2c-4.9,6.7-10.8,12.5-17.6,17.4l47.9,83.4h-68.4
			l-39.9-69.6h-25.2v69.6H628z M690.3,664.2h39.3c2.6,0,5-1,7.3-2.9c2.3-1.9,4.3-4.7,5.9-8.3c1.6-3.6,2.4-8,2.4-13.1
			c0-5.3-0.9-9.7-2.7-13.3c-1.8-3.5-4-6.2-6.7-8.1c-2.7-1.9-5.3-2.9-7.8-2.9h-37.7V664.2z"/>
		<path class="st2" d="M828.3,672.5c0-13.8,2.6-27.4,7.8-40.7c5.2-13.3,12.8-25.4,22.8-36.3c10-10.9,22.2-19.5,36.6-26
			c14.4-6.5,30.6-9.7,48.7-9.7c21.7,0,40.7,4.5,56.9,13.6c16.2,9.1,28.2,21,36.1,35.9l-47.6,33.9c-2.8-7.5-6.8-13.2-12-17.2
			c-5.2-4-10.9-6.9-16.9-8.5c-6.1-1.6-12-2.4-17.7-2.4c-8.9,0-16.7,1.8-23.2,5.3c-6.5,3.5-11.8,8.1-16,13.9
			c-4.2,5.8-7.2,12.1-9.3,19.2c-2,7-3,14.1-3,21.1c0,7.9,1.2,15.4,3.5,22.7c2.3,7.2,5.7,13.7,10.2,19.3c4.5,5.6,10,10.1,16.4,13.3
			c6.5,3.2,13.8,4.8,21.9,4.8c5.7,0,11.6-0.9,17.6-2.7c6-1.8,11.4-4.7,16.3-8.8c4.9-4,8.6-9.5,11.2-16.3l50.8,30.3
			c-4.5,11.1-11.9,20.6-22.4,28.4c-10.4,7.9-22.3,13.9-35.5,18c-13.2,4.2-26.3,6.2-39.3,6.2c-16.8,0-32.2-3.4-46.2-10.1
			c-14-6.7-26-15.7-36.1-26.8c-10.1-11.2-17.9-23.7-23.5-37.7C831,701.2,828.3,687,828.3,672.5z"/>
		<path class="st2" d="M1056.2,788.2V561.4h62.3v172.5h102.8v54.3H1056.2z"/>
		<path class="st2" d="M1398.9,733.9v54.3h-158.6V561.4h158.6v54.3h-96.3v31.9h83v50.5h-83v35.8H1398.9z"/>
	</g>
	<path class="st2" d="M246,575.4c-91.4-9.5-162.9-87-162.9-180.9c0-93.9,71.5-171.4,162.9-180.9l-8.7-82.7
		C104,144.7,0,257.4,0,394.5c0,137,104,249.7,237.3,263.6L246,575.4z"/>
	<circle class="st2" cx="265.3" cy="394.7" r="67.2"/>
	<text transform="matrix(1 0 0 1 318.4404 918.9137)" class="st0 st3 st4 st5">Sustainable Entrepreneurship</text>
</g>
</svg>
