<?xml version="1.0" encoding="utf-8"?>
<!-- Generator: Adobe Illustrator 25.2.3, SVG Export Plug-In . SVG Version: 6.00 Build 0)  -->
<svg version="1.1" id="Isolation_Mode" xmlns="http://www.w3.org/2000/svg" xmlns:xlink="http://www.w3.org/1999/xlink" x="0px"
	 y="0px" viewBox="0 0 2000.4 1021.6" style="enable-background:new 0 0 2000.4 1021.6;" xml:space="preserve">
<style type="text/css">
	.st0{fill:#B3D2C0;}
	.st1{fill:#008082;}
	.st2{fill:#BD2027;}
</style>
<g>
	<g>
		<path class="st0" d="M631.2,70.4h-84.5V294H466V70.4h-84.9V0h250.1V70.4z"/>
		<path class="st0" d="M915.8,0v294H835V178.9h-98.5V294h-80.7V0h80.7v108.5H835V0H915.8z"/>
		<path class="st0" d="M1149.3,223.6V294H948.3V0h200.9v70.4h-120.2v41.4h103.1v65.4h-103.1v46.4H1149.3z"/>
	</g>
	<g>
		<path class="st1" d="M934.1,659.8c-22.4,0-42.6-4.2-60.9-12.6c-18.2-8.4-33.9-19.7-47-34c-13.1-14.2-23.2-30.2-30.2-48
			c-7-17.8-10.6-36.2-10.6-55.3c0-19.6,3.7-38.2,11.2-55.9c7.5-17.7,17.9-33.5,31.3-47.4c13.4-13.9,29.3-24.9,47.6-32.9
			c18.4-8,38.4-12,60.2-12c22.4,0,42.6,4.2,60.9,12.6c18.2,8.4,33.8,19.8,46.8,34.2c13,14.4,23,30.4,30,48.2
			c7,17.8,10.6,36.1,10.6,54.9c0,19.3-3.7,37.8-11,55.5c-7.3,17.7-17.7,33.5-31.1,47.4c-13.4,13.9-29.2,25-47.4,33.1
			C976.3,655.7,956.2,659.8,934.1,659.8z M867.4,510.8c0,9.9,1.4,19.5,4.1,28.8c2.8,9.3,6.9,17.5,12.4,24.8
			c5.5,7.3,12.5,13.1,20.9,17.4c8.4,4.3,18.4,6.4,30,6.4c11.6,0,21.7-2.2,30.2-6.6c8.5-4.4,15.5-10.4,20.9-18
			c5.4-7.6,9.4-16,12-25.3c2.6-9.2,3.9-18.7,3.9-28.4c0-9.9-1.4-19.5-4.1-28.6c-2.8-9.1-6.9-17.3-12.4-24.6
			c-5.5-7.3-12.6-13-21.1-17.2c-8.6-4.1-18.5-6.2-29.8-6.2c-11.6,0-21.6,2.2-30,6.6c-8.4,4.4-15.4,10.3-20.9,17.6
			c-5.5,7.3-9.6,15.6-12.2,24.8C868.7,491.6,867.4,501.1,867.4,510.8z"/>
		<path class="st1" d="M1102.2,507.9c0-17.9,3.4-35.5,10.1-52.8c6.8-17.2,16.6-32.9,29.6-47c13-14.1,28.8-25.3,47.4-33.7
			c18.6-8.4,39.7-12.6,63.1-12.6c28.2,0,52.7,5.9,73.7,17.6c21,11.7,36.6,27.3,46.8,46.6l-61.7,43.9c-3.6-9.7-8.8-17.1-15.5-22.4
			c-6.8-5.2-14.1-8.9-21.9-11c-7.9-2.1-15.5-3.1-23-3.1c-11.6,0-21.6,2.3-30,6.8c-8.4,4.6-15.3,10.6-20.7,18
			c-5.4,7.5-9.4,15.7-12,24.8c-2.6,9.1-3.9,18.2-3.9,27.3c0,10.2,1.5,20,4.6,29.4c3,9.4,7.5,17.7,13.2,25c5.8,7.3,12.9,13,21.3,17.2
			c8.4,4.1,17.9,6.2,28.4,6.2c7.5,0,15-1.2,22.8-3.5c7.7-2.3,14.8-6.1,21.1-11.4c6.3-5.2,11.2-12.3,14.5-21.1l65.8,39.3
			c-5.8,14.4-15.5,26.6-29,36.8c-13.5,10.2-28.8,18-46,23.4c-17.1,5.4-34.1,8.1-50.9,8.1c-21.8,0-41.8-4.3-59.8-13
			c-18.1-8.7-33.7-20.3-46.8-34.8c-13.1-14.5-23.3-30.8-30.4-48.9C1105.8,545,1102.2,526.6,1102.2,507.9z"/>
		<path class="st1" d="M1395.1,657.7v-294h80.7v294H1395.1z"/>
		<path class="st1" d="M1586.2,363.8h90.3l93.6,294h-82l-15.2-57.5h-83l-15.2,57.5h-82.4L1586.2,363.8z M1658.7,546.4l-27.3-103.5
			L1604,546.4H1658.7z"/>
		<path class="st1" d="M1786.4,657.7v-294h80.7v223.6h133.3v70.4H1786.4z"/>
		<path class="st1" d="M733.6,460.2c-9.4-5.5-17.9-10-25.7-13.5c-7.7-3.4-16.1-6.6-25.3-9.3c-9.1-2.8-18.1-4.1-26.9-4.1
			c-6.9,0-12.6,1.1-17,3.3c-4.4,2.2-6.6,5.9-6.6,11.1c0,4.9,2.2,8.9,6.6,11.9c4.4,3,10.7,5.8,18.8,8.2c8.1,2.5,17.9,5.5,29.2,9
			c18.2,5.5,33.9,11.8,47.2,18.9c13.2,7.1,23.5,16.2,30.6,27.3c7.2,11.1,10.8,25.8,10.8,44.1c0,17.5-3.2,32.2-9.5,44.1
			c-6.4,11.9-14.9,21.4-25.7,28.5c-10.8,7.1-22.8,12.2-36,15.4c-13.2,3.1-26.8,4.7-40.6,4.7c-14.1,0-28.8-1.4-44.1-4.3
			c-15.3-2.9-30.2-6.9-44.5-12c-14.4-5.1-19.4-8.2-24.7-11.7c0,0,19.5-29.9,28-71.9c9,5.2,13.2,6.8,22.3,11
			c9.1,4.1,19.3,7.9,30.4,11.2c11.2,3.3,22.4,5,33.7,5c8.8,0,15-1.1,18.4-3.4c3.4-2.2,5.2-5.2,5.2-8.9c0-5.8-3-10.2-9.1-13.4
			c-6.1-3.2-14-6.2-23.8-9c-9.8-2.9-20.6-6.2-32.5-10.1c-17.1-5.8-31.2-12.3-42.2-19.5c-11-7.3-19.2-15.9-24.4-25.9
			c-5.2-10-7.9-22.1-7.9-36.4c0-21.7,5.1-39.7,15.3-54.3c10.2-14.5,23.7-25.6,40.4-33.1c16.7-7.5,34.7-11.3,54-11.3
			c14.3,0,28.2,1.7,41.6,5.2c13.4,3.5,25.9,7.7,37.7,12.6c11.7,5,22,9.7,30.8,14.1L733.6,460.2z"/>
	</g>
	<g>
		<path class="st2" d="M397.7,871.7c0-17.9,3.4-35.5,10.1-52.8c6.8-17.2,16.6-32.9,29.6-47c13-14.1,28.8-25.3,47.4-33.7
			c18.6-8.4,39.7-12.6,63.1-12.6c28.2,0,52.7,5.9,73.7,17.6c21,11.7,36.6,27.3,46.8,46.6l-61.7,43.9c-3.6-9.7-8.8-17.1-15.5-22.4
			c-6.8-5.2-14.1-8.9-21.9-11c-7.9-2.1-15.5-3.1-23-3.1c-11.6,0-21.6,2.3-30,6.8c-8.4,4.6-15.3,10.6-20.7,18
			c-5.4,7.5-9.4,15.7-12,24.8c-2.6,9.1-3.9,18.2-3.9,27.3c0,10.2,1.5,20,4.6,29.4c3,9.4,7.5,17.7,13.2,25c5.8,7.3,12.9,13,21.3,17.2
			c8.4,4.1,17.9,6.2,28.4,6.2c7.5,0,15-1.2,22.8-3.5c7.7-2.3,14.8-6.1,21.1-11.4c6.3-5.2,11.2-12.3,14.5-21.1l65.8,39.3
			c-5.8,14.4-15.5,26.6-29,36.8c-13.5,10.2-28.8,18-46,23.4c-17.1,5.4-34.1,8.1-50.9,8.1c-21.8,0-41.8-4.3-59.8-13
			c-18.1-8.7-33.7-20.3-46.8-34.8c-13.1-14.5-23.3-30.8-30.4-48.9C401.3,908.9,397.7,890.5,397.7,871.7z"/>
		<path class="st2" d="M693.1,1021.6v-294h80.7v294H693.1z"/>
		<path class="st2" d="M814,1021.6v-294h135c14.4,0,27.6,2.9,39.7,8.7c12.1,5.8,22.6,13.6,31.5,23.4c8.8,9.8,15.7,20.8,20.5,32.9
			c4.8,12.1,7.2,24.4,7.2,36.8c0,11.3-1.7,22.2-5,32.7c-3.3,10.5-8.1,20.1-14.5,28.8c-6.4,8.7-13.9,16.2-22.8,22.6l62.1,108.1h-88.6
			l-51.8-90.3h-32.7v90.3H814z M894.7,861h50.9c3.3,0,6.5-1.2,9.5-3.7c3-2.5,5.6-6.1,7.7-10.8c2.1-4.7,3.1-10.4,3.1-17
			c0-6.9-1.2-12.6-3.5-17.2c-2.3-4.6-5.2-8.1-8.7-10.6c-3.5-2.5-6.8-3.7-10.1-3.7h-48.9V861z"/>
		<path class="st2" d="M1073.6,871.7c0-17.9,3.4-35.5,10.1-52.8c6.8-17.2,16.6-32.9,29.6-47c13-14.1,28.8-25.3,47.4-33.7
			c18.6-8.4,39.7-12.6,63.1-12.6c28.2,0,52.7,5.9,73.7,17.6c21,11.7,36.6,27.3,46.8,46.6l-61.7,43.9c-3.6-9.7-8.8-17.1-15.5-22.4
			c-6.8-5.2-14.1-8.9-21.9-11c-7.9-2.1-15.5-3.1-23-3.1c-11.6,0-21.6,2.3-30,6.8c-8.4,4.6-15.3,10.6-20.7,18
			c-5.4,7.5-9.4,15.7-12,24.8c-2.6,9.1-3.9,18.2-3.9,27.3c0,10.2,1.5,20,4.6,29.4c3,9.4,7.5,17.7,13.2,25c5.8,7.3,12.9,13,21.3,17.2
			c8.4,4.1,17.9,6.2,28.4,6.2c7.5,0,15-1.2,22.8-3.5c7.7-2.3,14.8-6.1,21.1-11.4c6.3-5.2,11.2-12.3,14.5-21.1l65.8,39.3
			c-5.8,14.4-15.5,26.6-29,36.8c-13.5,10.2-28.8,18-46,23.4c-17.1,5.4-34.1,8.1-50.9,8.1c-21.8,0-41.8-4.3-59.8-13
			c-18.1-8.7-33.7-20.3-46.8-34.8c-13.1-14.5-23.3-30.8-30.4-48.9C1077.2,908.9,1073.6,890.5,1073.6,871.7z"/>
		<path class="st2" d="M1369,1021.6v-294h80.7v223.6H1583v70.4H1369z"/>
		<path class="st2" d="M1813.3,951.2v70.4h-205.5v-294h205.5V798h-124.8v41.4h107.6v65.4h-107.6v46.4H1813.3z"/>
	</g>
	<path class="st2" d="M318.9,745.8C200.4,733.4,107.7,633,107.7,511.3c0-121.7,92.7-222.1,211.1-234.5l-11.3-107.2
		C134.8,187.6,0,333.7,0,511.3C0,688.9,134.8,835,307.6,853L318.9,745.8z"/>
	<circle class="st2" cx="343.9" cy="511.7" r="87.1"/>
</g>
</svg>
